<?xml version="1.0" encoding="iso-8859-1"?>
<!-- Uploaded to: SVG Repo, www.svgrepo.com, Generator: SVG Repo Mixer Tools -->
<svg fill="#000000" height="800px" width="800px" version="1.1" id="Layer_1" xmlns="http://www.w3.org/2000/svg" xmlns:xlink="http://www.w3.org/1999/xlink" 
	 viewBox="0 0 512 512" xml:space="preserve">
<g>
	<g>
		<path d="M392.17,0H119.83c-4.512,0-8.17,3.658-8.17,8.17v185.191c0,4.512,3.658,8.17,8.17,8.17c4.512,0,8.17-3.658,8.17-8.17
			V16.34h256v177.021c0,4.512,3.658,8.17,8.17,8.17s8.17-3.658,8.17-8.17V8.17C400.34,3.658,396.682,0,392.17,0z"/>
	</g>
</g>
<g>
	<g>
		<path d="M359.489,32.681H152.511c-4.512,0-8.17,3.658-8.17,8.17v152.511c0,4.512,3.658,8.17,8.17,8.17
			c4.512,0,8.17-3.658,8.17-8.17v-68.085h87.149v68.085c0,4.512,3.658,8.17,8.17,8.17c4.512,0,8.17-3.658,8.17-8.17v-68.085h87.149
			v68.085c0,4.512,3.658,8.17,8.17,8.17s8.17-3.658,8.17-8.17V40.851C367.66,36.339,364.002,32.681,359.489,32.681z M247.83,108.936
			h-87.149V49.021h87.149V108.936z M351.319,108.936H264.17V49.021h87.149V108.936z"/>
	</g>
</g>
<g>
	<g>
		<path d="M503.83,452.085h-2.723v-247.83c0-4.512-3.658-8.17-8.17-8.17s-8.17,3.658-8.17,8.17v13.617H27.234v-13.617
			c0-4.512-3.658-8.17-8.17-8.17s-8.17,3.658-8.17,8.17v247.83H8.17c-4.512,0-8.17,3.658-8.17,8.17v43.574
			c0,4.512,3.658,8.17,8.17,8.17h495.66c4.512,0,8.17-3.658,8.17-8.17v-43.574C512,455.743,508.342,452.085,503.83,452.085z
			 M484.766,234.213v185.191H343.149v-39.327c51.392-29.191,86.822-83.349,89.677-145.864H484.766z M350.965,234.213
			c-4.158,48.749-45.158,87.149-94.965,87.149s-90.807-38.4-94.965-87.149H350.965z M144.64,234.213
			c4.198,57.769,52.539,103.489,111.36,103.489s107.162-45.721,111.359-103.489h49.115C412.206,319.03,341.859,386.723,256,386.723
			S99.794,319.03,95.525,234.213H144.64z M326.809,388.267v31.137H185.192v-31.137c21.696,9.507,45.644,14.797,70.808,14.797
			S305.113,397.774,326.809,388.267z M27.234,234.213h51.94c2.855,62.515,38.286,116.674,89.677,145.864v39.327H27.234V234.213z
			 M27.234,435.745h457.532v16.34H27.234V435.745z M495.66,495.66H16.34v-27.234H495.66V495.66z"/>
	</g>
</g>
<g>
	<g>
		<path d="M155.322,304.986c-11.302-14.38-19.241-30.604-23.597-48.223c-1.083-4.38-5.513-7.052-9.893-5.97
			c-4.38,1.083-7.054,5.512-5.971,9.893c4.916,19.882,13.869,38.183,26.612,54.397c1.612,2.051,4.009,3.122,6.429,3.122
			c1.767,0,3.547-0.571,5.043-1.747C157.494,313.67,158.11,308.533,155.322,304.986z"/>
	</g>
</g>
<g>
	<g>
		<path d="M390.167,250.795c-4.378-1.082-8.81,1.589-9.893,5.97C366.112,314.04,315.009,354.043,256,354.043
			c-28.906,0-56.205-9.447-78.945-27.321c-3.549-2.789-8.684-2.174-11.472,1.375c-2.789,3.548-2.173,8.684,1.374,11.472
			c25.649,20.16,56.44,30.815,89.043,30.815c32.871,0,63.86-10.809,89.613-31.258c24.978-19.833,42.921-47.689,50.523-78.437
			C397.219,256.307,394.547,251.878,390.167,250.795z"/>
	</g>
</g>
</svg>